; NON-PLATED HOLES START AT T1
; THROUGH (PLATED) HOLES START AT T100
M48
INCH
T1C0.125984
T100C0.125984
T101C0.039370
T102C0.038000
T103C0.040000
T104C0.130000
T105C0.035000
T106C0.118110
T107C0.118000
%
T1
X017058Y003949
X007219Y003957
T100
X034479Y022111
T101
X033469Y007493
X033469Y012993
X016969Y027493
X031469Y015993
X033469Y015993
X031469Y010493
X012969Y027493
X031469Y007493
X031469Y012993
X014969Y027493
X033469Y010493
T102
X007969Y027493
X006969Y027493
X003969Y003493
X020469Y003493
X003969Y004493
X020469Y004493
X009969Y027493
X008969Y027493
T103
X009947Y004493
X014310Y004493
X011585Y003375
X013762Y003375
X010495Y003375
X012672Y003375
X013219Y004493
X012129Y004493
X011038Y004493
T104
X017050Y003934
X007207Y003934
T105
X023469Y024993
X023469Y017993
X023469Y021993
X029469Y019993
X023469Y014993
X029469Y023993
X029469Y016993
X023469Y011993
X029469Y020993
X029469Y013993
X023469Y019993
X023469Y023993
X023469Y016993
X029469Y025993
X023469Y020993
X029469Y018993
X023469Y013993
X029469Y022993
X029469Y015993
X029469Y012993
X023469Y025993
X023469Y018993
X023469Y022993
X023469Y015993
X029469Y024993
X029469Y017993
X023469Y012993
X029469Y021993
X029469Y014993
X029469Y011993
T106
X036469Y001493
X036469Y028993
X001469Y001493
X001469Y028993
X004469Y022993
X018969Y022993
X004469Y008493
X018969Y008493
T107
X034469Y024993
X032998Y023362
T00
M30
